<?xml version="1.0" encoding="UTF-8"?>
<svg id="_x32_" xmlns="http://www.w3.org/2000/svg" xmlns:xlink="http://www.w3.org/1999/xlink" version="1.1" viewBox="0 0 512 512">
  <!-- Generator: Adobe Illustrator 29.3.1, SVG Export Plug-In . SVG Version: 2.1.0 Build 151)  -->
  <path d="M241.6,49.4c52.1-8.3,104.7,49.3,134.8,86.4,43.1,53.2,122.8,185.3,114,253.6-3.8,29.2-28.4,43.3-53.9,51.6-83.1,27.1-310.4,31.6-387.2-9.5-30-16.1-32.2-38.5-29.5-70.5C26.5,280,156.2,63,241.6,49.4ZM353.6,431.1c28.2-3.8,59.3-7.1,85.5-18.6,20.6-9,26.3-12.8,25.9-37.1-1.1-78.5-108.5-245.8-174.5-287.9-16.3-10.4-28.5-16-48.4-11.8-44.9,9.4-111.4,103.1-135.1,141.6-23.7,38.6-73.9,133.2-61,177.5s86.3,33.1,107.8,36.2l-3-90c5.6-19.5,1-39.9,3.3-59.5,2.4-20.2,6.3-25.8,26.7-27.5,49.2-4.1,104.2,3.1,154,.3,21.9,3.1,20.7,34.4,21.7,52.5,2.2,40.2-.1,84.2-3,124.2Z"/>
</svg>